<?xml version="1.0" encoding="UTF-8"?>
<svg width="32px" height="32px" viewBox="0 0 32 32" version="1.1" xmlns="http://www.w3.org/2000/svg">
    <title>Shop Marker</title>
    <g stroke="none" stroke-width="1" fill="none" fill-rule="evenodd">
        <circle fill="#F59E0B" cx="16" cy="16" r="16"></circle>
        <path d="M16,7 C20.418278,7 24,10.581722 24,15 C24,19.418278 16,25 16,25 C16,25 8,19.418278 8,15 C8,10.581722 11.581722,7 16,7 Z" fill="#FFFFFF"></path>
        <path d="M20,13 L20,12 C20,10.8954305 19.1045695,10 18,10 L14,10 C12.8954305,10 12,10.8954305 12,12 L12,13 L10,13 L10,19 C10,19.5522847 10.4477153,20 11,20 L21,20 C21.5522847,20 22,19.5522847 22,19 L22,13 L20,13 Z M14,12 L18,12 L18,13 L14,13 L14,12 Z" fill="#F59E0B"></path>
    </g>
</svg>
