<?xml version="1.0" encoding="UTF-8"?>
<svg width="32px" height="32px" viewBox="0 0 32 32" version="1.1" xmlns="http://www.w3.org/2000/svg">
    <title>Restaurant Marker</title>
    <g stroke="none" stroke-width="1" fill="none" fill-rule="evenodd">
        <circle fill="#9333EA" cx="16" cy="16" r="16"></circle>
        <path d="M16,7 C20.418278,7 24,10.581722 24,15 C24,19.418278 16,25 16,25 C16,25 8,19.418278 8,15 C8,10.581722 11.581722,7 16,7 Z" fill="#FFFFFF"></path>
        <path d="M13,11 C13.5522847,11 14,11.4477153 14,12 L14,18 C14,18.5522847 13.5522847,19 13,19 C12.4477153,19 12,18.5522847 12,18 L12,12 C12,11.4477153 12.4477153,11 13,11 Z" fill="#9333EA"></path>
        <path d="M16,11 C16.5522847,11 17,11.4477153 17,12 L17,18 C17,18.5522847 16.5522847,19 16,19 C15.4477153,19 15,18.5522847 15,18 L15,12 C15,11.4477153 15.4477153,11 16,11 Z" fill="#9333EA"></path>
        <path d="M19,11 C19.5522847,11 20,11.4477153 20,12 L20,18 C20,18.5522847 19.5522847,19 19,19 C18.4477153,19 18,18.5522847 18,18 L18,12 C18,11.4477153 18.4477153,11 19,11 Z" fill="#9333EA"></path>
    </g>
</svg>
